<svg id="Layer_3" enable-background="new 0 0 64 64" height="512" viewBox="0 0 64 64" width="512" xmlns="http://www.w3.org/2000/svg"><g><path d="m52 37v18c0 3.866-8.954 7-20 7s-20-3.134-20-7v-18" fill="#c18e59"/><path d="m52 37c0 3.866-8.954 7-20 7s-20-3.134-20-7v-4c0 3.866 8.954 7 20 7s20-3.134 20-7z" fill="#674025"/><path d="m52 55c0 3.866-8.954 7-20 7s-20-3.134-20-7v-4c0 3.866 8.954 7 20 7s20-3.134 20-7z" fill="#674025"/><ellipse cx="32" cy="33" fill="#f5cf88" rx="20" ry="7"/><ellipse cx="30" cy="33" fill="#fadfb2" rx="18" ry="6.965"/><path d="m45.995 49.946c0-.958-.91-1.636-1.835-1.388-3.369.904-7.585 1.442-12.16 1.442-4.577 0-8.795-.538-12.165-1.443-.925-.249-1.835.43-1.835 1.387 0 .645.428 1.205 1.046 1.389 3.49 1.04 8.013 1.667 12.954 1.667 4.939 0 9.46-.627 12.949-1.665.618-.184 1.046-.744 1.046-1.389z" fill="#f7d881"/><path d="m9.288 10c.456 0 .892.182 1.213.506l17.741 17.908c.408.408.944.636 1.508.759.536.117 1.046.381 1.463.798 1.296 1.296 1.158 3.484-.414 4.59-1.013.713-2.43.702-3.438-.018-.694-.495-1.094-1.2-1.217-1.943-.08-.481-.298-.926-.643-1.271l-17.995-17.828c-.324-.321-.506-.757-.506-1.213v-.581c0-.453.18-.887.5-1.207.32-.32.754-.5 1.207-.5z" fill="#c18e59"/><path d="m57.004 4.284c.001.455-.18.89-.502 1.209l-17.84 17.673c-.407.407-.633.941-.754 1.503-.115.535-.378 1.043-.794 1.459-1.291 1.291-3.475 1.149-4.582-.422-.713-1.012-.705-2.427.011-3.431.493-.692 1.195-1.09 1.937-1.211.48-.079.924-.296 1.267-.639l17.76-17.927c.319-.322.755-.503 1.209-.502l.58.001c.452.001.886.181 1.206.501.32.32.5.754.501 1.206z" fill="#c18e59"/><g><path d="m21 43.999h2v12h-2z" fill="#976947"/></g><g><path d="m31 44.999h2v12h-2z" fill="#976947"/></g><g><path d="m41 43.999h2v12h-2z" fill="#976947"/></g><g fill="#d5cec2"><circle cx="32" cy="44" r="2"/><circle cx="42" cy="43" r="2"/><circle cx="22" cy="43" r="2"/><circle cx="32" cy="58" r="2"/><circle cx="42" cy="57" r="2"/><circle cx="22" cy="57" r="2"/></g><path d="m20 43c0 .743.41 1.384 1.011 1.729 1.265-.527 2.156-1.774 2.156-3.23 0-.044-.011-.084-.013-.128-.326-.232-.723-.371-1.154-.371-1.105 0-2 .895-2 2z" fill="#e7e4dd"/><path d="m30 44c0 .743.41 1.384 1.011 1.729 1.265-.527 2.156-1.774 2.156-3.23 0-.044-.011-.084-.013-.128-.326-.232-.723-.371-1.154-.371-1.105 0-2 .895-2 2z" fill="#e7e4dd"/><path d="m40 43c0 .743.41 1.384 1.011 1.729 1.265-.527 2.156-1.774 2.156-3.23 0-.044-.011-.084-.013-.128-.326-.232-.723-.371-1.154-.371-1.105 0-2 .895-2 2z" fill="#e7e4dd"/><path d="m40 57c0 .743.41 1.384 1.011 1.729 1.265-.527 2.156-1.774 2.156-3.23 0-.044-.011-.084-.013-.128-.326-.232-.723-.371-1.154-.371-1.105 0-2 .895-2 2z" fill="#e7e4dd"/><path d="m30 58c0 .743.41 1.384 1.011 1.729 1.265-.527 2.156-1.774 2.156-3.23 0-.044-.011-.084-.013-.128-.326-.232-.723-.371-1.154-.371-1.105 0-2 .895-2 2z" fill="#e7e4dd"/><path d="m20 57c0 .743.41 1.384 1.011 1.729 1.265-.527 2.156-1.774 2.156-3.23 0-.044-.011-.084-.013-.128-.326-.232-.723-.371-1.154-.371-1.105 0-2 .895-2 2z" fill="#e7e4dd"/></g></svg>