<svg id="Layer_1" enable-background="new 0 0 512 512" height="512" viewBox="0 0 512 512" width="512" xmlns="http://www.w3.org/2000/svg"><g><g><path d="m497.83 483.417h-71.203l-42.627-13.574-42.627 13.574h-71.203c-4.244 0-8.266-1.903-10.957-5.185s-3.77-7.598-2.938-11.76l45.765-229.068c7.78-38.942 42.249-67.206 81.961-67.206s74.181 28.264 81.961 67.206l45.765 229.068c.832 4.162-.247 8.478-2.938 11.76-2.693 3.282-6.714 5.185-10.959 5.185z" fill="#c78ff5"/></g><path d="m426.628 483.417h71.203c4.244 0 8.266-1.903 10.957-5.185s3.77-7.598 2.938-11.76l-45.765-229.068c-7.78-38.942-42.249-67.206-81.961-67.206v299.645z" fill="#a260e5"/><path d="m341.373 181.971v301.446h85.254v-301.446c-12.584-7.495-27.206-11.773-42.627-11.773s-30.043 4.278-42.627 11.773z" fill="#fff959"/><path d="m426.628 483.417v-301.446c-12.584-7.495-27.206-11.773-42.627-11.773v313.219z" fill="#ffe733"/><g><path d="m241.83 483.677h-71.203l-42.627-13.574-42.627 13.574h-71.203c-4.244 0-8.266-1.903-10.957-5.185-2.691-3.282-3.77-7.598-2.938-11.76l45.765-229.068c7.78-38.942 42.249-67.206 81.961-67.206s74.181 28.264 81.961 67.206l45.765 229.068c.832 4.162-.247 8.478-2.938 11.76-2.693 3.282-6.714 5.185-10.959 5.185z" fill="#c78ff5"/></g><path d="m170.627 483.677h71.203c4.244 0 8.266-1.903 10.957-5.185s3.77-7.598 2.938-11.76l-45.765-229.068c-7.78-38.942-42.249-67.206-81.961-67.206v299.645z" fill="#a260e5"/><path d="m85.373 182.231v301.447h85.255v-301.447c-12.584-7.495-27.206-11.773-42.627-11.773-15.422 0-30.044 4.278-42.628 11.773z" fill="#fff959"/><path d="m170.627 483.677v-301.446c-12.584-7.495-27.206-11.773-42.627-11.773v313.219z" fill="#ffe733"/><g><path d="m128 113.577c-23.505 0-42.627-19.123-42.627-42.627s19.123-42.627 42.627-42.627 42.627 19.123 42.627 42.627-19.122 42.627-42.627 42.627z" fill="#23272b"/></g><path d="m170.627 70.95c0-23.505-19.123-42.627-42.627-42.627v85.255c23.505-.001 42.627-19.123 42.627-42.628z" fill="#0b0c0d"/><g><path d="m128 198.95c-31.351 0-56.856-25.506-56.856-56.856s25.506-56.856 56.856-56.856 56.856 25.506 56.856 56.856-25.505 56.856-56.856 56.856z" fill="#b56d3c"/></g><path d="m184.856 142.094c0-31.351-25.506-56.856-56.856-56.856v113.712c31.351 0 56.856-25.506 56.856-56.856z" fill="#8d5c4d"/><g><path d="m384 198.69c-31.35 0-56.856-25.505-56.856-56.856s25.506-56.856 56.856-56.856 56.856 25.505 56.856 56.856-25.505 56.856-56.856 56.856z" fill="#fcf7ca"/></g><path d="m440.856 141.834c0-31.35-25.505-56.856-56.856-56.856v113.712c31.351 0 56.856-25.506 56.856-56.856z" fill="#ffe89c"/></g></svg>