<svg id="Capa_1" enable-background="new 0 0 447.94 447.94" height="512" viewBox="0 0 447.94 447.94" width="512" xmlns="http://www.w3.org/2000/svg"><g><path d="m10 121.835h427.941c5.523 0 10 4.477 10 10v184.27c0 5.523-4.477 10-10 10h-427.941c-5.523 0-10-4.477-10-10v-184.27c0-5.523 4.477-10 10-10z" fill="#3a556a"/><path d="m25.051 203.851h397.844v93.864h-397.844z" fill="#ebf0f3"/><g fill="#3a556a"><path d="m36.155 202.551v46.22c.005 5.182 3.597 9.669 8.651 10.81v39.428h4.894v-39.45c5.055-1.14 8.646-5.628 8.651-10.81v-46.22z"/><path d="m67.568 202.551v46.22c.005 5.182 3.597 9.669 8.651 10.81v39.428h4.894v-39.45c5.055-1.14 8.646-5.628 8.651-10.81v-46.22z"/><path d="m116.653 202.551v46.22c.006 5.183 3.6 9.672 8.657 10.81v39.428h4.894v-39.45c5.055-1.14 8.646-5.628 8.651-10.81v-46.22z"/><path d="m148.072 202.551v46.22c.005 5.182 3.597 9.669 8.651 10.81v39.428h4.894v-39.45c5.055-1.14 8.646-5.628 8.651-10.81v-46.22z"/><path d="m197.157 202.551v46.22c.005 5.182 3.597 9.669 8.651 10.81v39.428h4.894v-39.45c5.057-1.138 8.651-5.627 8.657-10.81v-46.22z"/><path d="m228.57 202.551v46.22c.006 5.183 3.6 9.672 8.657 10.81v39.428h4.894v-39.45c5.055-1.14 8.646-5.628 8.651-10.81v-46.22z"/><path d="m277.661 202.551v46.22c.005 5.182 3.597 9.67 8.651 10.81v39.428h4.894v-39.45c5.055-1.14 8.646-5.628 8.651-10.81v-46.22z"/><path d="m309.074 202.551v46.22c.005 5.182 3.597 9.67 8.651 10.81v39.428h4.894v-39.45c5.057-1.138 8.651-5.627 8.657-10.81v-46.22z"/><path d="m358.165 202.551v46.22c.005 5.182 3.597 9.67 8.651 10.81v39.428h4.894v-39.45c5.055-1.14 8.646-5.628 8.651-10.81v-46.22z"/><path d="m389.578 202.551v46.22c.005 5.182 3.597 9.67 8.651 10.81v39.428h4.894v-39.45c5.055-1.14 8.646-5.628 8.651-10.81v-46.22z"/></g><path d="m50.554 141.639h72.984v37.922h-72.984z" fill="#2f4859"/><path d="m64.284 148.072h4.796v25.057h-4.796z" fill="#3e6b82"/><path d="m61.396 155.005h10.582v9.244h-10.582z" fill="#3a556a"/><path d="m84.647 148.072h4.796v25.057h-4.796z" fill="#3e6b82"/><path d="m81.755 155.005h10.582v9.244h-10.582z" fill="#3a556a"/><path d="m105.011 148.072h4.796v25.057h-4.796z" fill="#3e6b82"/><path d="m102.119 155.005h10.582v9.244h-10.582z" fill="#3a556a"/><path d="m187.478 141.639h72.984v37.922h-72.984z" fill="#2f4859"/><path d="m201.208 148.072h4.796v25.057h-4.796z" fill="#3e6b82"/><path d="m198.315 155.005h10.582v9.244h-10.582z" fill="#3a556a"/><path d="m221.572 148.072h4.796v25.057h-4.796z" fill="#3e6b82"/><path d="m218.679 155.005h10.582v9.244h-10.582z" fill="#3a556a"/><path d="m241.936 148.072h4.796v25.057h-4.796z" fill="#3e6b82"/><path d="m239.043 155.005h10.582v9.244h-10.582z" fill="#3a556a"/><path d="m324.398 141.639h72.984v37.922h-72.984z" fill="#2f4859"/><path d="m338.133 148.072h4.796v25.057h-4.796z" fill="#3e6b82"/><path d="m335.24 155.005h10.582v9.244h-10.582z" fill="#3a556a"/><path d="m358.491 148.072h4.796v25.057h-4.796z" fill="#3e6b82"/><path d="m355.599 155.005h10.582v9.244h-10.582z" fill="#3a556a"/><path d="m378.855 148.072h4.796v25.057h-4.796z" fill="#3e6b82"/><path d="m375.963 155.005h10.582v9.244h-10.582z" fill="#3a556a"/></g></svg>