<svg height="510pt" viewBox="0 0 510 510.81066" width="510pt" xmlns="http://www.w3.org/2000/svg"><path d="m97.03125 438.617188-51.234375 51.246093-24.550781-24.550781 85.914062-85.902344 12.269532-12.273437zm0 0" fill="#f0c419"/><path d="m321.929688 5.097656c6.777343-6.777344 17.765624-6.777344 24.542968 0l159.542969 159.542969c6.777344 6.777344 6.777344 17.769531 0 24.546875s-17.765625 6.777344-24.542969 0l-159.542968-159.542969c-6.777344-6.777343-6.777344-17.765625 0-24.546875zm0 0" fill="#f0c419"/><path d="m325.027344 32.742188-9.199219 61.875c-8.675781 58.054687-9.285156 85.476562-50.9375 127.042968l-96.414063 96.414063-24.472656 24.558593-24.558594 24.472657-12.320312 12.320312c-15.601562 15.578125-19.640625 39.324219-10.066406 59.183594 2.472656 5.363281 5.878906 10.242187 10.066406 14.40625l24.558594 24.558594c7.289062 7.304687 16.597656 12.261719 26.726562 14.230469-1.96875-1.445313-3.828125-3.039063-5.554687-4.773438l-24.558594-24.558594c-4.183594-4.164062-7.59375-9.042968-10.066406-14.402344-9.570313-19.863281-5.53125-43.605468 10.066406-59.183593l12.324219-12.324219 24.558594-24.472656 24.472656-24.558594 96.410156-96.410156c41.65625-41.570313 42.261719-68.992188 50.941406-127.046875l7.722656-51.632813zm0 0" fill="#f3d55b"/><path d="m291.269531 244.398438v.085937c.089844-.085937.261719-.175781.347657-.261719l1.214843-1.214844zm0 0" fill="#f29c1f"/><path d="m324.074219 217.0625c1.039062-.695312 2.082031-1.390625 3.035156-1.996094 30.546875-20.132812 47.730469-13.539062 89.382813-19.785156l61.875-9.199219-133.640626-133.640625-7.722656 51.632813c-8.679687 58.054687-9.285156 85.476562-50.941406 127.046875l-96.410156 96.410156-24.472656 24.558594-24.558594 24.472656-12.324219 12.324219c-15.597656 15.578125-19.636719 39.320312-10.066406 59.183593 2.472656 5.359376 5.882812 10.238282 10.066406 14.402344l24.558594 24.558594c1.726562 1.734375 3.585937 3.328125 5.554687 4.773438 17.042969 3.386718 34.65625-1.949219 46.949219-14.230469l147.265625-147.265625c20.300781-20.328125 20.300781-53.261719 0-73.589844l-34.972656-34.972656c.171875-.171875.433594-.34375.605468-.519532 1.996094-1.476562 3.90625-2.863281 5.816407-4.164062zm-173.992188 229.878906-12.238281-12.324218c-1.214844-1.199219-2.320312-2.503907-3.296875-3.902344-6.828125-10.363282-5.453125-24.09375 3.296875-32.890625l6.160156-6.160157 24.472656-24.558593 24.558594-24.472657 96.414063-96.414062c.605469-.605469 1.128906-1.128906 1.820312-1.734375v-.085937l1.5625-1.390626-1.214843 1.214844c-.085938.085938-.257813.175782-.347657.261719l30.632813 30.632813c4.914062 4.859374 7.679687 11.484374 7.679687 18.398437 0 6.910156-2.765625 13.535156-7.679687 18.394531l-6.074219 6.164063-24.558594 24.558593-24.558593 24.472657-73.675782 73.675781-6.074218 6.160156c-4.882813 4.902344-11.519532 7.65625-18.441407 7.65625-6.917969 0-13.554687-2.753906-18.4375-7.65625zm0 0" fill="#f29c1f"/><path d="m292.832031 243.007812-1.214843 1.214844c-.085938.085938-.257813.175782-.347657.261719v-.085937zm0 0" fill="#f29c1f"/><path d="m113.292969 336.453125c6.78125-6.78125 17.769531-6.78125 24.546875 0l110.453125 110.449219c6.777343 6.78125 6.777343 17.769531 0 24.546875-6.777344 6.777343-17.769531 6.777343-24.546875 0l-110.453125-110.453125c-6.777344-6.777344-6.777344-17.765625 0-24.542969zm0 0" fill="#f0c419"/><path d="m162.378906 287.359375c6.777344-6.777344 17.765625-6.777344 24.542969 0l110.453125 110.453125c6.777344 6.777344 6.777344 17.765625 0 24.542969-6.777344 6.777343-17.765625 6.777343-24.546875 0l-110.449219-110.453125c-6.78125-6.777344-6.78125-17.765625 0-24.542969zm0 0" fill="#f0c419"/><path d="m211.476562 238.269531c6.777344-6.777343 17.765626-6.777343 24.542969 0l110.453125 110.453125c6.777344 6.777344 6.777344 17.769532 0 24.546875-6.777344 6.777344-17.765625 6.777344-24.546875 0l-110.449219-110.453125c-6.78125-6.777344-6.78125-17.765625 0-24.546875zm0 0" fill="#f0c419"/><g fill="#f29c1f"><path d="m58.066406 510.8125c-2.300781-.003906-4.507812-.917969-6.132812-2.542969l-49.09375-49.09375c-3.289063-3.402343-3.238282-8.816406.105468-12.164062 3.347657-3.347657 8.761719-3.394531 12.167969-.105469l49.089844 49.089844c2.480469 2.484375 3.222656 6.214844 1.878906 9.457031-1.339843 3.242187-4.503906 5.355469-8.015625 5.359375zm0 0"/><path d="m113.292969 345.132812c-2.300781.003907-4.511719-.910156-6.132813-2.542968l-24.550781-24.542969c-3.386719-3.390625-3.386719-8.886719.003906-12.273437 3.390625-3.390626 8.886719-3.386719 12.273438.003906l24.542969 24.53125c2.480468 2.480468 3.222656 6.214844 1.878906 9.457031-1.339844 3.242187-4.503906 5.355469-8.015625 5.355469zm0 0"/><path d="m162.386719 296.039062c-2.304688.007813-4.511719-.910156-6.136719-2.542968l-24.550781-24.539063c-3.289063-3.40625-3.242188-8.820312.105469-12.167969 3.347656-3.34375 8.761718-3.394531 12.167968-.105468l24.546875 24.542968c2.484375 2.480469 3.226563 6.214844 1.882813 9.457032-1.34375 3.242187-4.507813 5.355468-8.015625 5.355468zm0 0"/><path d="m211.46875 246.949219c-2.300781 0-4.507812-.914063-6.136719-2.542969l-24.53125-24.542969c-2.257812-2.175781-3.160156-5.402343-2.367187-8.4375.792968-3.035156 3.164062-5.402343 6.199218-6.199219 3.03125-.792968 6.257813.113282 8.4375 2.367188l24.550782 24.542969c2.480468 2.480469 3.222656 6.214843 1.878906 9.457031-1.34375 3.246094-4.511719 5.359375-8.023438 5.355469zm0 0"/><path d="m76.472656 332.859375c-3.507812 0-6.671875-2.113281-8.015625-5.355469-1.339843-3.242187-.597656-6.976562 1.882813-9.457031l24.546875-24.550781c2.195312-2.191406 5.390625-3.046875 8.386719-2.242188 2.996093.804688 5.332031 3.144532 6.136718 6.140625.800782 2.996094-.058594 6.191407-2.25 8.382813l-24.550781 24.53125c-1.625 1.632812-3.832031 2.550781-6.136719 2.550781zm0 0"/><path d="m125.566406 283.769531c-3.511718 0-6.675781-2.117187-8.015625-5.359375-1.34375-3.242187-.601562-6.972656 1.878907-9.453125l24.550781-24.558593c3.40625-3.289063 8.816406-3.242188 12.164062.105468 3.347657 3.347656 3.394531 8.757813.105469 12.164063l-24.550781 24.542969c-1.621094 1.632812-3.832031 2.554687-6.132813 2.558593zm0 0"/><path d="m174.65625 234.679688c-3.507812-.003907-6.671875-2.117188-8.015625-5.359376-1.34375-3.242187-.601563-6.972656 1.878906-9.457031l24.542969-24.539062c2.179688-2.257813 5.40625-3.160157 8.4375-2.367188 3.035156.792969 5.40625 3.164063 6.199219 6.199219.792969 3.03125-.109375 6.257812-2.367188 8.4375l-24.53125 24.542969c-1.625 1.632812-3.839843 2.550781-6.144531 2.542969zm0 0"/></g><path d="m291.269531 244.398438c8.203125-8.121094 16.957031-15.664063 26.207031-22.5625.089844-.089844.089844-.089844.175782-.089844l6.941406 6.945312c-.867188.605469-1.648438 1.214844-2.515625 1.820313-8.476563 6.359375-16.535156 13.257812-24.125 20.652343l-6.683594-6.679687" fill="#e57e25"/></svg>