<svg id="Capa_1" enable-background="new 0 0 512 512" height="512" viewBox="0 0 512 512" width="512" xmlns="http://www.w3.org/2000/svg"><g><g><path d="m256 283c-141.387 0-243.97-115.801-222.898-153 43.972-77.621 127.317-130 222.898-130s178.926 52.379 222.898 130c21.072 37.199-81.511 153-222.898 153z" fill="#ffe333"/><path d="m512 256c0 26.051-3.891 51.191-11.129 74.871-5.031 16.469-11.672 32.231-19.75 47.109-8.25 15.2-147.391 61.02-225.121 61.02s-216.871-45.82-225.109-61.02c-3.289-6.031-6.332-12.21-9.121-18.531-14-31.629-21.77-66.629-21.77-103.449 0-46.219 12.25-89.57 33.68-127 44.121 77.07 127.16 129 222.32 129s178.211-51.93 222.32-129c21.43 37.43 33.68 80.781 33.68 127zm0 0" fill="#edba2c"/><path d="m481.262 377.699c-7.16 13.223-15.434 25.742-24.723 37.43-8.437 10.633-17.719 20.57-27.719 29.723-5.399 4.944-11.011 9.659-16.82 14.131-19.359 14.902-115.309 51.307-143 52.693-4.306.215-8.64.324-13 .324s-8.694-.109-13-.324c-29.603-1.481-125.048-38.877-142.978-52.675-5.817-4.477-11.437-9.198-16.842-14.148-10-9.153-19.282-19.09-27.719-29.723-9.289-11.688-17.563-24.207-24.723-37.43h450.524zm0 0" fill="#e1781c"/></g><g><path d="m159.672 402.828c-31.518 0-57.387 24.985-59.975 55.912 8.018 6.191 16.412 11.917 25.145 17.137h95.036v-12.041c-.001-33.371-26.834-61.008-60.206-61.008z" fill="#e15e6b"/><path d="m219.877 463.836v12.041h-60.205v-73.049c33.372 0 60.205 27.637 60.205 61.008z" fill="#dd455b"/><path d="m159.672 306.5c-26.49 0-48.164 21.673-48.164 48.164 0 26.49 21.674 48.164 48.164 48.164s48.164-21.674 48.164-48.164c0-26.491-21.675-48.164-48.164-48.164z" fill="#f7e0ba"/><path d="m207.836 354.664c0 26.49-21.674 48.164-48.164 48.164v-96.328c26.489 0 48.164 21.673 48.164 48.164z" fill="#efbeaa"/><path d="m159.672 475.877-12.041-12.041h-41.108c39.016 28.11 86.261 45.504 137.436 47.874v-47.874h-72.246z" fill="#5a5f64"/><path d="m159.672 475.877v17.362c26.214 10.654 54.587 17.096 84.287 18.471v-47.874h-72.246z" fill="#4b5055"/><path d="m147.631 487.978c7.82 3.66 15.855 6.936 24.082 9.803v-33.946h-24.082z" fill="#4b5055"/><path d="m159.672 493.239c3.965 1.612 7.979 3.127 12.041 4.543v-33.946h-12.041z" fill="#373c41"/><path d="m219.877 258.336v12.041h-120.41v-12.041c0-33.233 26.972-60.205 60.205-60.205 33.372 0 60.205 26.834 60.205 60.205z" fill="#e15e6b"/><path d="m219.877 258.336v12.041h-60.205v-72.246c33.372 0 60.205 26.834 60.205 60.205z" fill="#dd455b"/><path d="m159.672 101c-26.49 0-48.164 22.476-48.164 48.967 0 26.49 21.674 48.164 48.164 48.164s48.164-21.674 48.164-48.164c0-26.491-21.675-48.967-48.164-48.967z" fill="#f7e0ba"/><path d="m207.836 149.967c0 26.49-21.674 48.164-48.164 48.164v-97.131c26.489 0 48.164 22.476 48.164 48.967z" fill="#efbeaa"/><path d="m243.959 258.336v48.164h-72.246l-12.041-12.041-12.041 12.041h-72.246v-48.164h72.246l12.041 12.041 12.041-12.041z" fill="#5a5f64"/><path d="m243.959 258.336v48.164h-72.246l-12.041-12.041v-24.082l12.041-12.041z" fill="#4b5055"/><path d="m147.631 258.336h24.082v48.164h-24.082z" fill="#4b5055"/><path d="m159.672 258.336h12.041v48.164h-12.041z" fill="#373c41"/><path d="m352.328 402.828c-33.233 0-60.205 27.774-60.205 61.008v12.041h95.036c8.733-5.221 17.128-10.947 25.147-17.139-2.569-31.039-28.323-55.91-59.978-55.91z" fill="#e15e6b"/><path d="m352.328 402.828v73.049h34.831c8.733-5.221 17.128-10.947 25.147-17.139-2.569-31.039-28.323-55.91-59.978-55.91z" fill="#dd455b"/><path d="m352.328 306.5c-26.49 0-48.164 21.673-48.164 48.164 0 26.49 21.674 48.164 48.164 48.164s48.164-21.674 48.164-48.164c0-26.491-21.674-48.164-48.164-48.164z" fill="#f7e0ba"/><path d="m400.492 354.664c0 26.49-21.674 48.164-48.164 48.164v-96.328c26.49 0 48.164 21.673 48.164 48.164z" fill="#efbeaa"/><path d="m268.041 463.836v47.874c51.175-2.37 98.42-19.764 137.436-47.874h-41.108l-12.041 12.041-12.041-12.041z" fill="#5a5f64"/><path d="m405.477 463.836h-41.108l-12.041 12.041v17.362c18.954-7.704 36.776-17.607 53.149-29.403z" fill="#4b5055"/><path d="m340.287 497.782c8.227-2.868 16.262-6.143 24.082-9.803v-24.143h-24.082z" fill="#4b5055"/><path d="m352.328 493.239c4.067-1.653 8.081-3.407 12.041-5.26v-24.143h-12.041z" fill="#373c41"/><path d="m412.533 258.336v12.041h-120.41v-12.041c0-33.233 26.972-60.205 60.205-60.205 33.372 0 60.205 26.834 60.205 60.205z" fill="#e15e6b"/><path d="m412.533 258.336v12.041h-60.205v-72.246c33.372 0 60.205 26.834 60.205 60.205z" fill="#dd455b"/><path d="m352.328 101c-26.49 0-48.164 22.476-48.164 48.967 0 26.49 21.674 48.164 48.164 48.164s48.164-21.674 48.164-48.164c0-26.491-21.674-48.967-48.164-48.967z" fill="#f7e0ba"/><path d="m400.492 149.967c0 26.49-21.674 48.164-48.164 48.164v-97.131c26.49 0 48.164 22.476 48.164 48.967z" fill="#efbeaa"/><path d="m436.615 258.336v48.164h-72.246l-12.041-12.041-12.041 12.041h-72.246v-48.164h72.246l12.041 12.041 12.041-12.041z" fill="#5a5f64"/><path d="m436.615 258.336v48.164h-72.246l-12.041-12.041v-24.082l12.041-12.041z" fill="#4b5055"/><path d="m340.287 258.336h24.082v48.164h-24.082z" fill="#4b5055"/><path d="m352.328 258.336h12.041v48.164h-12.041z" fill="#373c41"/></g></g></svg>