<svg height="512pt" viewBox="-26 0 512 512" width="512pt" xmlns="http://www.w3.org/2000/svg"><g fill="#b4b4b4"><path d="m185.78125 114.324219h-21.273438c-4.289062 0-7.765624-3.476563-7.765624-7.761719 0-4.289062 3.476562-7.765625 7.765624-7.765625h21.273438c4.289062 0 7.765625 3.476563 7.765625 7.765625 0 4.285156-3.476563 7.761719-7.765625 7.761719zm0 0"/><path d="m193.511719 124.964844c-4.289063 0-7.765625-3.476563-7.765625-7.765625v-21.277344c0-4.289063 3.476562-7.765625 7.765625-7.765625 4.289062 0 7.765625 3.476562 7.765625 7.765625v21.277344c0 4.289062-3.476563 7.765625-7.765625 7.765625zm0 0"/><path d="m185.78125 160.722656h-21.273438c-4.289062 0-7.765624-3.476562-7.765624-7.765625 0-4.289062 3.476562-7.765625 7.765624-7.765625h21.273438c4.289062 0 7.765625 3.476563 7.765625 7.765625 0 4.289063-3.476563 7.765625-7.765625 7.765625zm0 0"/><path d="m193.511719 171.359375c-4.289063 0-7.765625-3.476563-7.765625-7.765625v-21.273438c0-4.289062 3.476562-7.765624 7.765625-7.765624 4.289062 0 7.765625 3.476562 7.765625 7.765624v21.273438c0 4.289062-3.476563 7.765625-7.765625 7.765625zm0 0"/><path d="m185.78125 208.347656h-21.273438c-4.289062 0-7.765624-3.476562-7.765624-7.765625 0-4.289062 3.476562-7.765625 7.765624-7.765625h21.273438c4.289062 0 7.765625 3.476563 7.765625 7.765625 0 4.289063-3.476563 7.765625-7.765625 7.765625zm0 0"/><path d="m193.511719 218.984375c-4.289063 0-7.765625-3.476563-7.765625-7.765625v-21.273438c0-4.289062 3.476562-7.765624 7.765625-7.765624 4.289062 0 7.765625 3.476562 7.765625 7.765624v21.273438c0 4.289062-3.476563 7.765625-7.765625 7.765625zm0 0"/></g><path d="m258.171875 226.832031c-32.910156 50.507813-11.015625 121.484375-10.722656 161.671875.195312 27.214844-16.195313 33.203125-34.929688 34.457032-25.453125 1.707031-34.933593-15.996094-34.933593-34.933594l-7.277344-342.902344c-1.058594-19.957031-17.554688-35.597656-37.539063-35.597656h-67.558593v42.167968h53.507812l-10.5 352.898438c0 59.074219 48.332031 107.40625 107.40625 107.40625 59.070312 0 107.402344-48.332031 107.402344-107.40625v-5.171875h.097656v-77.511719c0-8.273437 3.054688-15.988281 8.074219-22.050781-17.117188-17.117187-55.90625-55.90625-73.027344-73.027344zm0 0" fill="#ffe999"/><path d="m258.171875 226.832031c-4.308594 6.613281-7.671875 13.582031-10.273437 20.785157l52.242187 52.242187c-5.019531 6.0625-8.074219 13.777344-8.074219 22.050781v77.511719h-.097656v5.171875c0 53.800781-40.089844 98.6875-91.875 106.273438 5.074219.742187 10.257812 1.132812 15.53125 1.132812 59.074219 0 107.40625-48.332031 107.40625-107.40625v-5.171875h.09375v-77.511719c0-8.273437 3.054688-15.988281 8.074219-22.050781-17.117188-17.117187-55.90625-55.90625-73.027344-73.027344zm0 0" fill="#ffcf3b"/><path d="m139.246094 45.125 7.277344 342.902344c0 18.9375 9.480468 36.640625 34.933593 34.933594 5.003907-.335938 9.835938-1.015626 14.238281-2.339844-12.9375-5.328125-18.113281-18.617188-18.113281-32.59375l-7.273437-342.902344c-1.0625-19.960938-17.554688-35.597656-37.542969-35.597656h-31.058594c19.988281 0 36.480469 15.636718 37.539063 35.597656zm0 0" fill="#ffcf3b"/><path d="m15.300781 8.988281c-4.625 8.34375-9.058593 16.800781-13.378906 25.324219-5.921875 11.679688 2.554687 25.5 15.648437 25.5h78.871094v-59.8125h-65.820312c-6.355469 0-12.238282 3.429688-15.320313 8.988281zm0 0" fill="#c1c1c1"/><path d="m65.382812 0h31.0625v59.8125h-31.0625zm0 0" fill="#b4b4b4"/><path d="m144.988281 387.917969c-4.292969 0-7.765625-3.476563-7.765625-7.765625v-50.273438c0-4.289062 3.472656-7.765625 7.765625-7.765625 4.289063 0 7.761719 3.476563 7.761719 7.765625v50.273438c0 4.289062-3.472656 7.765625-7.761719 7.765625zm0 0" fill="#ffbc19"/><path d="m323.125 362.292969h-41.148438c-4.289062 0-7.765624-3.480469-7.765624-7.765625 0-4.289063 3.476562-7.765625 7.765624-7.765625h41.148438c4.289062 0 7.765625 3.476562 7.765625 7.765625 0 4.285156-3.476563 7.765625-7.765625 7.765625zm0 0" fill="#ffbc19"/><path d="m323.125 395.734375h-41.148438c-4.289062 0-7.765624-3.476563-7.765624-7.765625s3.476562-7.765625 7.765624-7.765625h41.148438c4.289062 0 7.765625 3.476563 7.765625 7.765625s-3.476563 7.765625-7.765625 7.765625zm0 0" fill="#ffbc19"/><path d="m211.839844 454.308594c-7.75-1.613282-15.367188 3.382812-16.980469 11.132812s3.382813 15.371094 11.132813 16.980469c7.753906 1.613281 15.371093-3.382813 16.980468-11.132813 1.613282-7.75-3.378906-15.367187-11.132812-16.980468zm0 0" fill="#ffbc19"/><path d="m247.28125 447.027344c-7.75-1.609375-15.367188 3.382812-16.980469 11.132812-1.613281 7.753906 3.382813 15.371094 11.132813 16.980469 7.75 1.613281 15.367187-3.378906 16.980468-11.132813 1.613282-7.75-3.378906-15.367187-11.132812-16.980468zm0 0" fill="#ffbc19"/><path d="m341.355469 319.601562-99.191407-99.191406c-2.417968-2.417968-2.417968-6.371094 0-8.785156l20.28125-20.285156c2.417969-2.414063 6.371094-2.414063 8.785157 0l99.195312 99.195312c2.414063 2.414063 2.414063 6.367188 0 8.785156l-20.285156 20.28125c-2.414063 2.417969-6.367187 2.417969-8.785156 0zm0 0" fill="#ffcf3b"/><path d="m389.421875 80.992188c.027344-.265626.042969-.53125.042969-.804688v-.019531c.011718-.28125.042968-.558594.042968-.84375 0-.285157-.03125-.5625-.042968-.84375v-35.945313c0-4.289062-3.476563-7.765625-7.765625-7.765625-4.289063 0-7.765625 3.476563-7.765625 7.765625v18.867188c-.832032-.117188-1.679688-.199219-2.546875-.199219-10.007813 0-18.117188 8.113281-18.117188 18.121094 0 10.003906 8.113281 18.117187 18.117188 18.117187 9.445312 0 17.195312-7.226562 18.035156-16.449218zm0 0" fill="#b4b4b4"/><path d="m459.46875 200.601562v-44.429687c0-4.289063-3.472656-7.765625-7.761719-7.765625h-50.035156c-.019531 0-.039063.003906-.0625.003906-.019531 0-.042969-.003906-.0625-.003906-4.289063 0-7.765625 3.476562-7.765625 7.765625v28.152344c-.867188-.125-1.746094-.214844-2.652344-.214844-10.003906 0-18.117187 8.113281-18.117187 18.121094 0 10.003906 8.113281 18.117187 18.117187 18.117187 9.613282 0 17.453125-7.484375 18.0625-16.941406.074219-.429688.121094-.871094.121094-1.320312v-38.152344h34.628906v20.371094c-.824218-.117188-1.65625-.195313-2.507812-.195313-10.007813 0-18.121094 8.113281-18.121094 18.121094 0 10.003906 8.113281 18.117187 18.121094 18.117187 10.007812 0 18.117187-8.113281 18.117187-18.117187.003907-.550781-.03125-1.09375-.082031-1.628907zm0 0" fill="#b4b4b4"/></svg>