<svg id="Layer_1" enable-background="new 0 0 512 512" height="512" viewBox="0 0 512 512" width="512" xmlns="http://www.w3.org/2000/svg"><g><path d="m463.916 396.629c23.494-37.602 37.086-82.026 37.086-129.631 0-135.311-109.691-245.002-245.002-245.002s-245.002 109.691-245.002 245.002c0 47.605 13.592 92.029 37.086 129.631z" fill="#567ee2"/><g><path d="m256 140.717c-36.664 0-65.213-6.312-87.074-14.865 1.075 9.211 2.478 15.691 2.478 15.691l171.148.061c.145-5.006.411-10.699.685-15.813-21.882 8.583-50.484 14.926-87.237 14.926z" fill="#45304c"/></g><path d="m336.88 292.039c-9.968 25.045-35.897 50.274-50.613 63.192-3.748 3.288-9.392 2.873-12.626-.835l-10.167-11.651c-3.95-4.525-10.996-4.531-14.949 0l-10.167 11.651c-3.252 3.727-8.9 4.105-12.626.835-3.106-2.727-6.715-6.008-10.565-9.714-2.411 2.651-4.871 4.483-5.729 5.088-1.954.144-9.48 1.068-14.104 6.873-3.163 3.972-4.24 9.294-3.21 15.836-.343.069-.742.158-1.176.263 14.664 22.888 35.403 46.271 64.053 63.485.613.368 1.384.344 1.973-.062.388-.268.779-.533 1.184-.781 68.742-42.175 91.305-119.863 93.605-138.45-4.889-2.093-9.842-4.006-14.883-5.73z" fill="#d3dcfb"/><path d="m175.12 292.039c-5.119 1.75-10.145 3.697-15.108 5.828 1.429 11.334 10.172 43.797 31.789 77.031 1.29-.278 2.069-.357 2.069-.357-4.405-21.906 16.073-22.463 16.073-22.463s3.185-2.079 6.322-5.51c-14.57-13.887-33.082-34.269-41.145-54.529z" fill="#a8b7ef"/><path d="m390.363 316.211c2.043 23.719 3.536 44.787 4.582 63.866 11.492 3.649 34.162 16.169 36.11 58.286 12.389-12.656 23.429-26.639 32.861-41.735-4.566-33.253-20.538-76.104-72.11-80.32-.504-.041-.984-.099-1.453-.165.002.023.008.045.01.068z" fill="#d3dcfb"/><path d="m433 436.361c-2.408-44.012-27.672-55.156-38.142-57.888 1.961 35.133 2.405 63.509 1.919 89.054 13.076-9.197 25.202-19.649 36.223-31.166z" fill="#bec8f7"/><path d="m48.084 396.629c17.372 27.804 40.157 51.874 66.892 70.727-.74-39.031.7-84.662 6.425-151.146.001-.01.004-.02.005-.031-.393.051-.795.095-1.212.129-51.572 4.217-67.544 47.068-72.11 80.321z" fill="#a8b7ef"/><path d="m304.641 246.544c-4.913 5.723-10.069 10.509-14.996 14.335-9.599 7.454-21.445 11.503-33.645 11.503-.586 0-1.17-.018-1.753-.036.038.066.084.145.117.203-1.345 3.9-9.574 25.625-28.989 35.609-.084.037-.99.442-2.149 1.297 11.471 10.738 23.903 22.808 28.279 26.951 2.52 2.386 6.471 2.384 8.989.001 5.906-5.592 22.428-21.687 35.575-33.711 9.889-9.044 13.203-19.133 14.094-26.801-3.953-9.261-5.221-20.614-5.522-29.351z" fill="#ffaa7b"/><path d="m222.356 260.879c-4.927-3.826-10.084-8.613-14.996-14.335-.301 8.737-1.57 20.09-5.523 29.35.891 7.667 4.204 17.757 14.095 26.802 2.666 2.438 5.517 5.089 8.41 7.804.941-.664 1.634-.966 1.634-.966 22.198-11.414 30.024-37.152 30.024-37.152-12.2 0-24.045-4.049-33.644-11.503z" fill="#fd995b"/><path d="m346.828 139.65c-3.805-3.487-11.384-1.719-14.661.416.718 4.47.759 9.044.139 13.56l-3.867 28.165c0 2.27-.072 4.498-.203 6.687 9.43 2.844 14.114-5.621 14.903-11.431.34-2.501.895-4.966 1.665-7.371 2.508-7.834 11.557-21.29 2.024-30.026z" fill="#ffaa7b"/><path d="m165.172 139.65c3.805-3.487 11.384-1.719 14.661.416-.718 4.47-.759 9.044-.138 13.56l3.867 28.165c0 2.27.072 4.498.203 6.687-9.43 2.844-14.114-5.621-14.903-11.431-.34-2.501-.895-4.966-1.665-7.371-2.509-7.834-11.557-21.29-2.025-30.026z" fill="#fd995b"/><path d="m331.054 131.364c-.144-.377-.305-.755-.462-1.133-19.936 6.241-44.535 10.485-74.592 10.485-7.654 0-14.949-.278-21.908-.791 2.696 1.37 5.752 2.685 9.19 3.94-2.945 8.687-17.091 54.851.67 92.437 7.002 14.817 18.088 26.566 33.033 35.13 4.503-1.86 8.768-4.311 12.659-7.333 18.39-14.281 40.009-41.808 40.009-82.308l3.867-28.165c1.032-7.508.25-15.177-2.466-22.262z" fill="#ffc7ab"/><path d="m182.347 181.791c0 40.5 21.619 68.028 40.009 82.308 9.599 7.454 21.445 11.503 33.644 11.503 7.886 0 15.62-1.701 22.699-4.911-67.584-37.644-33.507-127.736-33.507-127.736-2.61-.914-4.947-1.838-7.051-2.768-22.113-1.312-40.899-5-56.732-9.956-.128.307-.261.614-.381.921-2.78 7.141-3.59 14.885-2.549 22.468z" fill="#ffaa7b"/><path d="m320.778 5.126c-16.066-10.099-29.415-3.36-45.529 3.814-11.917 5.306-25.483 5.449-37.498.456-6.887 5.512-14.176 14.264-16.044 27.339-3.199 22.396 1.339 36.957 2.774 40.825-.56.537-1.367 1.36-2.267 2.413 36.318 4.084 73.214 1.567 108.877-7.582l9.867-2.531c1.503-.386 2.999-.322 4.366.089-4.739-29.209-12.371-57.17-24.546-64.823z" fill="#6c5475"/><path d="m171.098 69.88 9.79 2.512c14.221 3.648 28.646 6.238 43.158 7.78 1.277-1.409 2.21-2.201 2.21-2.201s-6.731-15.357-3.064-41.024c1.87-13.089 9.286-21.662 16.107-26.929-.888-.333-1.771-.686-2.642-1.074-16.118-7.176-29.067-13.918-45.135-3.818-12.175 7.653-19.882 35.613-24.708 64.822 1.344-.39 2.81-.446 4.284-.068z" fill="#543e5b"/><path d="m378.873 85.642-27.423 3.327c.089 1.659.163 3.146.224 4.433.138 2.938-1.829 5.601-4.679 6.332l-24.376 6.253c-32.546 8.349-66.48 10.461-99.729 6.342.359.35.728.699 1.112 1.044-1.923 2.007-5.179 6.317-4.252 11.788 1.127 6.65 8.05 12.55 20.582 17.571 5.056.261 10.264.413 15.668.413 69.213 0 109.52-22.491 130.47-40.097 7.534-6.331 2.173-18.592-7.597-17.406z" fill="#6c5475"/><path d="m226.243 113.325c-.281-.232-.55-.464-.816-.697-12.138-1.387-24.194-3.596-36.063-6.641l-24.359-6.249c-2.859-.733-4.826-3.405-4.678-6.351.065-1.283.143-2.764.237-4.417l-27.437-3.329c-9.77-1.185-15.131 11.076-7.597 17.407 19.83 16.665 57.02 37.694 119.633 39.896-38.961-13.656-18.92-29.619-18.92-29.619z" fill="#543e5b"/><path d="m351.132 74.756c-.368-5.077-5.242-8.59-10.173-7.326l-9.867 2.531c-34.99 8.977-71.166 11.566-106.819 7.803-2.543 2.483-8.966 9.652-8.91 18.756.035 5.923 2.815 11.462 8.254 16.493 33.045 4.011 66.671 1.867 99.147-6.464l24.376-6.253c3.131-.803 5.267-3.693 5.115-6.922-.201-4.26-.551-10.74-1.123-18.618z" fill="#ff7186"/><path d="m164.86 100.301 24.359 6.249c12.204 3.131 24.576 5.388 37.023 6.774-21.115-17.456.014-35.353.014-35.353l-.001-.003c-15.257-1.508-30.424-4.173-45.367-8.006l-9.79-2.512c-4.921-1.262-9.787 2.235-10.171 7.3-.596 7.87-.966 14.346-1.18 18.607-.163 3.238 1.974 6.139 5.113 6.944z" fill="#ff4155"/><path d="m336.782 284.657-22.363-14.602c-2.425-1.583-5.698.036-5.837 2.929-.342 7.085-2.842 18.4-13.741 28.368-13.05 11.935-29.832 28.271-35.598 33.732-.877.831-2.033 1.289-3.241 1.289-1.208 0-2.364-.458-3.242-1.289-4.683-4.435-16.633-16.044-27.948-26.643-1.326.719-4.631 2.855-6.218 6.969-1.443 3.742-1.085 8.06 1.065 12.833 3.384 7.513-1.552 14.436-5.746 18.584 3.967 3.825 7.612 7.134 10.619 9.773 4.476 3.93 11.285 3.482 15.201-1.006l10.167-11.651c1.538-1.762 3.763-2.774 6.102-2.774s4.564 1.011 6.102 2.774l10.167 11.651c3.916 4.488 10.725 4.935 15.201 1.006 13.95-12.246 41.63-38.853 51.551-65.009.967-2.555.047-5.44-2.241-6.934z" fill="#e9efff"/><path d="m225.975 309.534c-3.013-2.83-6-5.608-8.814-8.182-10.899-9.969-13.399-21.284-13.741-28.369-.14-2.893-3.412-4.512-5.837-2.929l-22.364 14.602c-2.289 1.494-3.208 4.38-2.239 6.935 7.982 21.043 27.454 42.372 42.028 56.285 4.483-4.429 9.775-11.91 6.018-20.25-6.001-13.318 4.949-18.092 4.949-18.092z" fill="#d3dcfb"/><path d="m262.23 439.108c-31.931-17.416-54.65-42.847-70.322-67.615.06.599.121 1.199.219 1.82-6.307 1.272-29.101 8.077-29.101 39.865l.003 61.985c.013.189.846 10.872 8.02 21.696 26.465 9.79 55.082 15.141 84.951 15.141 4.074 0 8.123-.105 12.148-.301v-62.714c0-4.132-2.291-7.898-5.918-9.877z" fill="#6c5475"/><path d="m164.525 475.067s0-26.119 0-61.888 29.345-38.637 29.345-38.637c0-.002-.001-.004-.001-.006-21.689-33.105-30.671-65.659-32.067-77.031-.359-2.921-3.474-4.619-6.125-3.342l-31.427 15.134c-2.637 1.27-4.413 3.841-4.664 6.757-5.951 69.11-6.729 121.491-6.534 149.927 18.365 13.217 38.637 23.946 60.318 31.716-8.084-11.104-8.845-22.63-8.845-22.63z" fill="#543e5b"/><path d="m387.514 309.297-31.427-15.134c-2.651-1.277-5.767.421-6.125 3.342-2.313 18.845-25.447 95.866-92.755 137.161-8.457 5.189-13.59 14.419-13.59 24.341v52.683c4.102.204 8.231.31 12.384.31 53.248 0 102.522-16.995 142.712-45.846.199-28.396-.57-80.849-6.533-150.1-.252-2.915-2.029-5.487-4.666-6.757z" fill="#826b8c"/><circle cx="273.556" cy="463.989" fill="#977ca5" r="11.077"/><ellipse cx="256" cy="402.101" fill="#bec8f7" rx="11.077" ry="11.077" transform="matrix(.924 -.383 .383 .924 -134.391 128.575)"/><path d="m215.798 321.14c-2.633-.126-5.106 1.094-6.423 3.122-2.573 3.96-5.704 11.296-2.094 20.404 2.931 7.396 5.032 15.063 6.311 20.366.912 3.783 5.511 5.813 9.491 4.237 8.841-3.503 22.708-10.957 29.312-24.859v-11.553c.001 0-13.512-10.612-36.597-11.717z" fill="#ff4155"/><path d="m298.725 321.14c2.633-.126 5.106 1.094 6.423 3.122 2.573 3.96 5.704 11.296 2.094 20.404-2.931 7.396-5.032 15.063-6.311 20.366-.912 3.783-5.511 5.813-9.491 4.237-8.841-3.503-22.708-10.957-29.312-24.859v-11.553c-.001 0 13.512-10.612 36.597-11.717z" fill="#ff7186"/><path d="m261.258 352.078h-7.993c-4.092 0-7.44-3.348-7.44-7.44v-9.57c0-4.092 3.348-7.44 7.44-7.44h7.993c4.092 0 7.44 3.348 7.44 7.44v9.57c0 4.092-3.348 7.44-7.44 7.44z" fill="#f9a0b1"/><g><path d="m120.676 314.139h-15.303c-27.194 0-49.318-22.124-49.318-49.318v-27.776c0-4.143 3.357-7.5 7.5-7.5s7.5 3.357 7.5 7.5v27.776c0 18.923 15.396 34.318 34.318 34.318h15.303c18.923 0 34.318-15.396 34.318-34.318v-27.775c0-4.143 3.357-7.5 7.5-7.5s7.5 3.357 7.5 7.5v27.775c.001 27.194-22.123 49.318-49.318 49.318z" fill="#e9efff"/></g><g><path d="m172.752 244.545h-119.454c-4.143 0-7.5-3.357-7.5-7.5s3.357-7.5 7.5-7.5h119.453c4.143 0 7.5 3.357 7.5 7.5s-3.357 7.5-7.499 7.5z" fill="#d3dcfb"/></g><path d="m113.025 304.272c-5.508 0-9.972 4.464-9.972 9.972v144.143c6.395 5.117 13.048 9.924 19.943 14.39v-158.533c.001-5.508-4.463-9.972-9.971-9.972z" fill="#d3dcfb"/><path d="m108.479 178.375v24.611c0 6.987 5.717 12.704 12.704 12.704h16.195c1.821 0 3.549-.399 5.117-1.1v-20.554c0-12.05-9.768-21.818-21.818-21.818h-10.573c-1.027 1.828-1.625 3.923-1.625 6.157z" fill="#ffdd40"/><path d="m136.526 214.403h-15.297c-6.6 0-12-5.4-12-12v-23.248c0-2.582.835-4.974 2.237-6.937h-6.091c-12.05 0-21.818 9.768-21.818 21.818v36.392h58.939v-17.638c-1.763 1.02-3.799 1.613-5.97 1.613z" fill="#ffc839"/><path d="m83.555 229.429v35.392c0 12.05 9.768 21.818 21.818 21.818h15.303c12.05 0 21.818-9.768 21.818-21.818v-35.392z" fill="#e9efff"/><g fill="#6e92ed"><path d="m15.472 220.251c67.439-4.018 26.849-41.391 80.387-77.105 25.664-17.12 12.244-45.101.396-61.905-40.963 35.259-70.122 83.836-80.783 139.01z"/><path d="m440.923 106.285c-22.258 7.221-54.182 22.527-65.064 52.662-17.333 48-40.667 97.874 6.667 123.603 41.745 22.692 84.522 19.98 104.56 65.992 9.007-25.509 13.916-52.952 13.916-81.545 0-61.493-22.66-117.692-60.079-160.712z"/></g></g></svg>